<svg width="71" height="71" viewBox="0 0 71 71" fill="none" xmlns="http://www.w3.org/2000/svg">
<path d="M53.2085 4.82895C58.5925 7.93743 63.0635 12.4084 66.172 17.7924C69.2804 23.1765 70.9169 29.2839 70.9168 35.5009C70.9168 41.7179 69.2803 47.8253 66.1717 53.2093C63.0632 58.5933 58.5922 63.0642 53.2081 66.1726C47.824 69.2811 41.7166 70.9174 35.4996 70.9174C29.2826 70.9173 23.1752 69.2807 17.7912 66.1721C12.4073 63.0635 7.9364 58.5924 4.82804 53.2083C1.71968 47.8242 0.0833382 41.7167 0.0834961 35.4998L0.101205 34.3523C0.299549 28.2358 2.07939 22.2751 5.26722 17.0512C8.45504 11.8274 12.9421 7.51867 18.2908 4.5452C23.6396 1.57172 29.6676 0.0349371 35.7871 0.0846657C41.9066 0.134394 47.9088 1.76894 53.2085 4.82895ZM45.5302 45.93C40.9791 39.1052 30.1097 38.3792 22.9095 43.1781C22.128 43.6994 21.5856 44.5098 21.4016 45.4311C21.2177 46.3523 21.4072 47.3089 21.9285 48.0904C22.4498 48.8719 23.2602 49.4143 24.1815 49.5983C25.1027 49.7823 26.0593 49.5928 26.8408 49.0714C31.0731 46.2487 37.5154 46.6808 39.6368 49.8612C39.895 50.2482 40.2268 50.5805 40.6133 50.8393C40.9999 51.098 41.4336 51.278 41.8898 51.3691C42.3459 51.4602 42.8156 51.4606 43.2719 51.3702C43.7281 51.2798 44.1622 51.1004 44.5491 50.8423C44.9361 50.5842 45.2684 50.2523 45.5271 49.8658C45.7859 49.4792 45.9659 49.0455 46.057 48.5893C46.1481 48.1332 46.1485 47.6635 46.0581 47.2073C45.9677 46.751 45.7883 46.317 45.5302 45.93ZM50.021 34.4373C41.2766 27.8781 29.1429 26.6917 19.5343 32.3512C18.7246 32.8284 18.1377 33.6077 17.9026 34.5176C17.6674 35.4276 17.8034 36.3936 18.2806 37.2033C18.7577 38.013 19.537 38.6 20.447 38.8351C21.3569 39.0702 22.323 38.9342 23.1327 38.4571C30.1664 34.3098 39.226 35.1987 45.771 40.104C46.5224 40.6675 47.467 40.9095 48.3969 40.7767C49.3267 40.6438 50.1657 40.1471 50.7293 39.3956C51.2929 38.6442 51.5349 37.6996 51.4021 36.7697C51.2692 35.8399 50.7724 35.0009 50.021 34.4373ZM55.0856 23.6423C42.0629 15.5035 27.581 16.0206 16.2087 21.7085C15.3986 22.1454 14.7904 22.8804 14.5129 23.7579C14.2354 24.6354 14.3104 25.5865 14.722 26.4097C15.1336 27.2329 15.8494 27.8635 16.718 28.168C17.5865 28.4725 18.5394 28.427 19.375 28.041C28.7072 23.3767 40.6143 22.9517 51.3314 29.6489C52.1279 30.1468 53.0896 30.3078 54.0049 30.0966C54.9201 29.8854 55.714 29.3192 56.2118 28.5227C56.7097 27.7262 56.8707 26.7645 56.6595 25.8492C56.4483 24.934 55.8821 24.1401 55.0856 23.6423Z" fill="black"/>
</svg>
