<svg width="79" height="65" viewBox="0 0 79 65" fill="none" xmlns="http://www.w3.org/2000/svg">
<path d="M60.7498 0.625C63.0753 0.625 65.3781 1.08304 67.5265 1.97297C69.675 2.86289 71.6271 4.16728 73.2715 5.81165C74.9159 7.45602 76.2203 9.40817 77.1102 11.5566C78.0001 13.7051 78.4582 16.0078 78.4582 18.3333V46.6667C78.4582 48.9922 78.0001 51.2949 77.1102 53.4434C76.2203 55.5918 74.9159 57.544 73.2715 59.1884C71.6271 60.8327 69.675 62.1371 67.5265 63.027C65.3781 63.917 63.0753 64.375 60.7498 64.375H18.2498C15.9243 64.375 13.6216 63.917 11.4732 63.027C9.32468 62.1371 7.37253 60.8327 5.72815 59.1884C2.4072 55.8674 0.541504 51.3632 0.541504 46.6667V18.3333C0.541504 13.6368 2.4072 9.13261 5.72815 5.81165C9.04911 2.49069 13.5533 0.625 18.2498 0.625H60.7498ZM28.8748 21.875V43.125C28.8753 43.7513 29.0419 44.3663 29.3576 44.9073C29.6733 45.4482 30.1268 45.8958 30.6719 46.2043C31.2169 46.5129 31.8341 46.6714 32.4603 46.6636C33.0866 46.6558 33.6997 46.4821 34.2369 46.1602L51.9453 35.5352C52.4689 35.2203 52.9022 34.7754 53.203 34.2435C53.5038 33.7116 53.6618 33.111 53.6618 32.5C53.6618 31.889 53.5038 31.2884 53.203 30.7565C52.9022 30.2246 52.4689 29.7797 51.9453 29.4648L34.2369 18.8398C33.6997 18.5179 33.0866 18.3442 32.4603 18.3364C31.8341 18.3286 31.2169 18.4871 30.6719 18.7957C30.1268 19.1042 29.6733 19.5518 29.3576 20.0927C29.0419 20.6337 28.8753 21.2487 28.8748 21.875Z" fill="black"/>
</svg>
