<svg width="88" height="88" viewBox="0 0 88 88" fill="none" xmlns="http://www.w3.org/2000/svg">
<path d="M77 29.029V43.8203C70.3489 43.1605 64.007 40.6859 58.6667 36.6667V53.1667C58.6657 57.6441 57.4034 62.0308 55.0245 65.824C52.6457 69.6173 49.2464 72.6637 45.2161 74.6142C41.1858 76.5648 36.6876 77.3406 32.2368 76.8528C27.786 76.365 23.5626 74.6333 20.0505 71.8561C16.5383 69.0789 13.8796 65.3686 12.3788 61.1501C10.878 56.9317 10.5958 52.3758 11.5646 48.0044C12.5335 43.6329 14.7141 39.6229 17.8567 36.4335C20.9993 33.2442 24.9767 31.0046 29.3333 29.9713V45.8333C28.0833 46.7708 27.0937 48.0123 26.4584 49.4399C25.8232 50.8674 25.5634 52.4337 25.7037 53.9899C25.844 55.5461 26.3798 57.0406 27.2602 58.3315C28.1406 59.6224 29.3363 60.6668 30.7339 61.3656C32.1314 62.0644 33.6844 62.3943 35.2454 62.3241C36.8063 62.2538 38.3234 61.7858 39.6525 60.9643C40.9817 60.1428 42.0788 58.9952 42.8397 57.6305C43.6006 56.2658 44 54.7292 44 53.1667V11H58.971C59.7345 15.5041 61.88 19.6593 65.1104 22.8896C68.3407 26.12 72.4959 28.2655 77 29.029Z" stroke="black" stroke-width="7" stroke-linecap="round" stroke-linejoin="round"/>
</svg>
