<svg width="88" height="88" viewBox="0 0 88 88" fill="none" xmlns="http://www.w3.org/2000/svg">
<path d="M14.6665 29.3332C14.6665 25.4433 16.2117 21.7128 18.9623 18.9623C21.7128 16.2117 25.4433 14.6665 29.3332 14.6665H58.6665C62.5563 14.6665 66.2869 16.2117 69.0374 18.9623C71.7879 21.7128 73.3332 25.4433 73.3332 29.3332V58.6665C73.3332 62.5563 71.7879 66.2869 69.0374 69.0374C66.2869 71.7879 62.5563 73.3332 58.6665 73.3332H29.3332C25.4433 73.3332 21.7128 71.7879 18.9623 69.0374C16.2117 66.2869 14.6665 62.5563 14.6665 58.6665V29.3332Z" stroke="black" stroke-width="7" stroke-linecap="round" stroke-linejoin="round"/>
<path d="M33 44C33 46.9174 34.1589 49.7153 36.2218 51.7782C38.2847 53.8411 41.0826 55 44 55C46.9174 55 49.7153 53.8411 51.7782 51.7782C53.8411 49.7153 55 46.9174 55 44C55 41.0826 53.8411 38.2847 51.7782 36.2218C49.7153 34.1589 46.9174 33 44 33C41.0826 33 38.2847 34.1589 36.2218 36.2218C34.1589 38.2847 33 41.0826 33 44Z" stroke="black" stroke-width="7" stroke-linecap="round" stroke-linejoin="round"/>
<path d="M60.5 27.5V27.5363" stroke="black" stroke-width="7" stroke-linecap="round" stroke-linejoin="round"/>
</svg>
